<svg id="Layer_1" enable-background="new 0 0 512.034 512.034" height="512" viewBox="0 0 512.034 512.034" width="512" xmlns="http://www.w3.org/2000/svg"><g><path d="m51.24 0h409.555v512.034h-409.555z" fill="#d6e8fd"/><path d="m256.028 0h204.766v512.034h-204.766z" fill="#bcdefd"/><path d="m237.756 346.538.092.139c11.498 18.395 23.788 33.345 33.497 44.012 71.876-7.675 128.045-68.675 128.045-142.552 0-33.481-23.047-73.857-68.5-120.007-32.544-33.042-64.608-56.847-65.958-57.844l-8.916-6.591-8.916 6.591c-.939.694-16.771 12.451-37.282 30.675 6.457 6.487 17.054 17.89 27.97 32.833l8.339 12.081c21.041 32.369 31.709 64.081 31.709 94.256 0 31.483-17.178 72.85-39.989 106.546" fill="#f7a831"/><path d="m399.391 248.137c0-33.481-23.047-73.857-68.5-120.007-32.544-33.042-64.608-56.847-65.958-57.844l-8.905-6.583v98.762c14.478 26.61 21.809 52.666 21.809 77.666 0 22.329-8.646 49.627-21.809 75.636v56.782c5.449 6.96 10.679 13.044 15.317 18.139 71.876-7.674 128.046-68.674 128.046-142.551z" fill="#fd8b39"/><path d="" fill="none" stroke="#f7a831" stroke-miterlimit="10"/><path d="m181.144 128.13c-45.453 46.149-68.5 86.525-68.5 120.007 0 79.056 64.317 143.373 143.373 143.373 17.359 0 34.006-3.103 49.419-8.78-13.758-13.248-71.512-73.012-71.512-142.599 0-22.738 8.766-50.865 22.23-77.434-3.03-5.584-6.368-11.193-10.027-16.822l-8.339-12.081c-10.916-14.944-21.513-26.346-27.97-32.833.014-.012.027-.025.041-.037-8.959 7.959-18.812 17.151-28.715 27.206z" fill="#fcbe2c"/><g><path d="m141.574 432.031h228.887v30h-228.887z" fill="#384e75"/></g><g><path d="m116.243 50.003h40.002v30h-40.002z" fill="#384e75"/></g><path d="" fill="none" stroke="#f7a831" stroke-miterlimit="10"/><path d="m256.028 432.031h114.432v30h-114.432z" fill="#2a3860"/><path d="m256.028 318.218v73.292c17.355-.001 33.998-3.104 49.408-8.78-8.119-7.818-31.557-31.838-49.408-64.512z" fill="#f7a831"/></g></svg>